<svg width="20" height="21" viewBox="0 0 20 21" id="FilterBtn" fill="none" xmlns="http://www.w3.org/2000/svg">
<path fill-rule="evenodd" clip-rule="evenodd" d="M4 3.5C4.55228 3.5 5 3.9938 5 4.60294V17.3971C5 18.0062 4.55228 18.5 4 18.5C3.44772 18.5 3 18.0062 3 17.3971V4.60294C3 3.9938 3.44772 3.5 4 3.5Z" fill="white"/>
<path fill-rule="evenodd" clip-rule="evenodd" d="M9 3.5C9.55228 3.5 10 3.9938 10 4.60294V17.3971C10 18.0062 9.55228 18.5 9 18.5C8.44772 18.5 8 18.0062 8 17.3971V4.60294C8 3.9938 8.44772 3.5 9 3.5Z" fill="white"/>
<path fill-rule="evenodd" clip-rule="evenodd" d="M15 3.5C15.5523 3.5 16 3.9938 16 4.60294V17.3971C16 18.0062 15.5523 18.5 15 18.5C14.4477 18.5 14 18.0062 14 17.3971V4.60294C14 3.9938 14.4477 3.5 15 3.5Z" fill="white"/>
<path fill-rule="evenodd" clip-rule="evenodd" d="M3.13636 14.5H5.86364C6.49123 14.5 7 14.9477 7 15.5C7 16.0523 6.49123 16.5 5.86364 16.5H3.13636C2.50877 16.5 2 16.0523 2 15.5C2 14.9477 2.50877 14.5 3.13636 14.5Z" fill="white"/>
<path fill-rule="evenodd" clip-rule="evenodd" d="M8.13636 10.5H10.8636C11.4912 10.5 12 10.9477 12 11.5C12 12.0523 11.4912 12.5 10.8636 12.5H8.13636C7.50877 12.5 7 12.0523 7 11.5C7 10.9477 7.50877 10.5 8.13636 10.5Z" fill="white"/>
<path fill-rule="evenodd" clip-rule="evenodd" d="M13.1364 6.5H15.8636C16.4912 6.5 17 6.94772 17 7.5C17 8.05228 16.4912 8.5 15.8636 8.5H13.1364C12.5088 8.5 12 8.05228 12 7.5C12 6.94772 12.5088 6.5 13.1364 6.5Z" fill="white"/>
</svg>
